<?xml version="1.0" encoding="UTF-8"?>
<svg version="1.1" xmlns="http://www.w3.org/2000/svg" width="512" height="512">
<path d="M0 0 C4.12279192 0.00914431 8.24551904 -0.00496515 12.36829758 -0.01591969 C20.42114874 -0.03361055 28.47384991 -0.02990731 36.5267067 -0.01826912 C43.07743169 -0.00919766 49.62811496 -0.00802676 56.17884445 -0.01236439 C57.11483144 -0.01297732 58.05081843 -0.01359025 59.01516867 -0.01422176 C60.9172179 -0.01550079 62.81926713 -0.01679765 64.72131634 -0.01811212 C82.51389757 -0.02949029 100.30639608 -0.01644775 118.09896374 0.00508934 C133.3317681 0.0229578 148.56445049 0.01985291 163.79725266 0.0014143 C181.53063333 -0.02004141 199.26394168 -0.02839191 216.99733353 -0.01613665 C218.89198429 -0.01486259 220.78663507 -0.0136051 222.68128586 -0.01236439 C223.61324075 -0.01174729 224.54519565 -0.01113018 225.5053916 -0.01049438 C232.04044057 -0.00705555 238.57544327 -0.01283799 245.11048508 -0.0222826 C253.08571738 -0.03355638 261.06079241 -0.03035036 269.03600693 -0.00915962 C273.09708423 0.00127898 277.15790031 0.00559719 281.21897507 -0.00775623 C315.20309151 -0.10993334 342.84879771 5.5528535 368.02772141 30.05024242 C391.7657425 55.03570204 396.06230555 83.83956048 395.95296383 117.09283352 C395.94381952 121.21562544 395.95792898 125.33835256 395.96888351 129.4611311 C395.98657438 137.51398226 395.98287114 145.56668343 395.97123295 153.61954021 C395.96216149 160.17026521 395.96099059 166.72094848 395.96532822 173.27167797 C395.96594115 174.20766496 395.96655408 175.14365195 395.96718559 176.10800219 C395.96846462 178.01005142 395.96976148 179.91210065 395.97107595 181.81414986 C395.98245411 199.60673109 395.96941158 217.39922959 395.94787449 235.19179726 C395.93000603 250.42460162 395.93311092 265.65728401 395.95154953 280.89008617 C395.97300524 298.62346685 395.98135574 316.3567752 395.96910048 334.09016705 C395.96782642 335.98481781 395.96656893 337.87946859 395.96532822 339.77411938 C395.96471111 340.70607427 395.96409401 341.63802917 395.96345821 342.59822512 C395.96001938 349.13327409 395.96580182 355.66827679 395.97524643 362.2033186 C395.98652021 370.17855089 395.98331419 378.15362593 395.96212345 386.12884045 C395.95168485 390.18991775 395.94736664 394.25073383 395.96072006 398.31180859 C396.06289717 432.29592503 390.40011032 459.94163123 365.90272141 485.12055492 C340.91726179 508.85857602 312.11340335 513.15513907 278.86013031 513.04579735 C274.73733839 513.03665304 270.61461127 513.0507625 266.49183273 513.06171703 C258.43898157 513.0794079 250.3862804 513.07570466 242.33342361 513.06406647 C235.78269862 513.05499501 229.23201535 513.05382411 222.68128586 513.05816174 C221.74529887 513.05877467 220.80931188 513.0593876 219.84496164 513.06001911 C217.94291241 513.06129814 216.04086318 513.062595 214.13881397 513.06390947 C196.34623274 513.07528763 178.55373423 513.0622451 160.76116657 513.04070801 C145.52836221 513.02283955 130.29567982 513.02594444 115.06287766 513.04438305 C97.32949698 513.06583876 79.59618863 513.07418926 61.86279678 513.06193399 C59.96814602 513.06065994 58.07349524 513.05940245 56.17884445 513.05816174 C55.24688956 513.05754463 54.31493466 513.05692753 53.35473871 513.05629173 C46.81968974 513.0528529 40.28468704 513.05863534 33.74964523 513.06807995 C25.77441293 513.07935373 17.7993379 513.07614771 9.82412338 513.05495697 C5.76304608 513.04451837 1.70223 513.04020016 -2.35884476 513.05355358 C-36.3429612 513.15573069 -63.9886674 507.49294384 -89.16759109 482.99555492 C-112.90561219 458.01009531 -117.20217524 429.20623687 -117.09283352 395.95296383 C-117.08368921 391.83017191 -117.09779867 387.70744478 -117.1087532 383.58466625 C-117.12644407 375.53181509 -117.12274083 367.47911392 -117.11110264 359.42625713 C-117.10203118 352.87553214 -117.10086028 346.32484887 -117.10519791 339.77411938 C-117.10581084 338.83813239 -117.10642377 337.9021454 -117.10705528 336.93779516 C-117.10833431 335.03574593 -117.10963117 333.1336967 -117.11094564 331.23164749 C-117.1223238 313.43906626 -117.10928127 295.64656775 -117.08774418 277.85400009 C-117.06987572 262.62119573 -117.07298061 247.38851334 -117.09141922 232.15571117 C-117.11287493 214.4223305 -117.12122543 196.68902215 -117.10897017 178.9556303 C-117.10769611 177.06097954 -117.10643862 175.16632876 -117.10519791 173.27167797 C-117.10427225 171.87374563 -117.10427225 171.87374563 -117.1033279 170.44757223 C-117.09988907 163.91252326 -117.10567151 157.37752056 -117.11511612 150.84247875 C-117.1263899 142.86724645 -117.12318388 134.89217142 -117.10199314 126.9169569 C-117.09155454 122.8558796 -117.08723633 118.79506352 -117.10058975 114.73398876 C-117.20276686 80.74987232 -111.53998001 53.10416612 -87.04259109 27.92524242 C-62.05713148 4.18722132 -33.25327304 -0.10934172 0 0 Z M16.68006516 178.39789867 C13.3319407 183.04807152 12.18114068 186.56332445 12.16936874 192.27811718 C12.16228394 193.42761349 12.15519913 194.57710979 12.14789963 195.76143932 C12.15037704 197.01351681 12.15285446 198.26559429 12.15540695 199.55561352 C12.15105714 200.89473282 12.14587309 202.23384963 12.13991928 203.57296276 C12.12654589 207.20321433 12.12594882 210.83336167 12.12848258 214.46363306 C12.12955357 217.49781842 12.12466557 220.5319828 12.11987716 223.56616366 C12.10878739 230.72688821 12.10834136 237.88756031 12.11439133 245.0482893 C12.12042943 252.42656439 12.10812313 259.8046487 12.08682126 267.18289125 C12.06918567 273.52531185 12.06320704 279.86767183 12.066459 286.21011603 C12.06826913 289.99472118 12.06566297 293.77919028 12.05174446 297.56377316 C12.03913902 301.12448709 12.0411356 304.6849045 12.05415535 308.24561405 C12.05763626 310.16818425 12.04636272 312.09076361 12.03458786 314.0133009 C12.08216248 321.84801749 12.56779321 327.11911582 17.74256516 333.27289867 C23.14165648 337.79306816 27.78135926 338.96979415 34.71107101 338.94282055 C35.52000305 338.95129009 36.32893509 338.95975964 37.16238022 338.96848583 C39.82338519 338.99179119 42.48380981 338.9928796 45.14490891 338.99164867 C47.00286717 338.99875381 48.86082324 339.00645332 50.7187767 339.01471996 C54.60819732 339.02814966 58.49741499 339.02974018 62.38685226 339.02387524 C67.36138916 339.01797846 72.33495031 339.04857667 77.30929852 339.08899212 C81.14500768 339.11488962 84.98048247 339.11774472 88.81626701 339.11410046 C90.64983257 339.11578957 92.4834092 339.12541197 94.31688881 339.14324474 C96.88513825 339.16547754 99.45141983 339.1557123 102.01966476 339.13813305 C102.7705336 339.15139629 103.52140244 339.16465954 104.29502487 339.1783247 C109.86362867 339.09013226 113.38205903 337.34929003 117.43006516 333.52289867 C120.47140886 329.10804491 121.33822599 324.79839476 120.43006516 319.52289867 C118.86506834 315.16389624 116.53878708 311.93942425 112.60032272 309.38233471 C107.4368618 307.33757078 101.53541212 308.0467061 96.06287766 308.13227367 C94.65898573 308.13974215 93.25508333 308.14543222 91.85117722 308.14942455 C88.17171124 308.16463352 84.49288561 308.20387286 80.81367111 308.24824047 C77.05307806 308.28929653 73.29238065 308.3074575 69.53162766 308.32758617 C62.16414951 308.37037309 54.79719735 308.43856519 47.43006516 308.52289867 C47.43421322 307.59855778 47.43421322 307.59855778 47.43844509 306.65554333 C47.5047883 291.63974122 47.5543862 276.62398428 47.58550167 261.60807323 C47.60095004 254.34639239 47.62200054 247.08480956 47.65638351 239.82319164 C47.68634827 233.49165847 47.70565491 227.16019632 47.71233064 220.82859421 C47.71623103 217.47807858 47.72694389 214.12792642 47.74725533 210.77744579 C47.76906191 207.03101638 47.77203063 203.28500644 47.77064133 199.53852367 C47.78142715 198.43584652 47.79221298 197.33316936 47.80332565 196.19707775 C47.77552886 189.26060684 47.344887 183.01406029 42.71131516 177.46430492 C42.12350266 177.00926586 41.53569016 176.5542268 40.93006516 176.08539867 C40.34225266 175.61231274 39.75444016 175.1392268 39.14881516 174.65180492 C31.5964415 169.69126859 22.49867273 172.31480894 16.68006516 178.39789867 Z M140.43006516 178.58539867 C137.01690239 183.59848148 136.63882844 187.51669274 137.43006516 193.52289867 C139.74001565 198.89950757 143.07603502 201.29256182 148.43006516 203.52289867 C151.25976271 203.90818401 154.03956672 203.87423081 156.89100266 203.81586742 C157.68157059 203.81162258 158.47213852 203.80737774 159.28666306 203.80300426 C161.79315456 203.78631168 164.29881976 203.7486785 166.80506516 203.71039867 C168.51208473 203.69533959 170.219117 203.68165333 171.92615891 203.66938305 C176.0944424 203.63643924 180.26211404 203.5847236 184.43006516 203.52289867 C184.4245344 204.46270077 184.4245344 204.46270077 184.41889191 205.42148876 C184.33043881 220.687631 184.26430609 235.95369427 184.22281647 251.22002697 C184.20221752 258.60281628 184.17414833 265.98543422 184.12830734 273.36811352 C184.08835743 279.80512263 184.06261295 286.24200758 184.05371118 292.67913723 C184.04851011 296.0855678 184.03634238 299.49164328 184.00714493 302.89795971 C183.97807352 306.70674656 183.97411092 310.51479982 183.97596359 314.32367992 C183.96158249 315.44505856 183.94720139 316.56643719 183.93238449 317.72179699 C183.96780304 324.45900801 184.82476977 328.78594642 188.43006516 334.52289867 C192.29839341 338.19781051 196.20357214 340.78622138 201.61756516 341.02289867 C206.36063143 340.88984236 209.44862618 339.23234326 213.38709641 336.71430492 C219.66000645 329.98561939 219.99810868 322.08409978 219.88416672 313.30195141 C219.88475082 312.11070156 219.88533493 310.91945171 219.88593674 309.69210339 C219.88364122 306.45278783 219.86369784 303.21417978 219.83564091 299.97500396 C219.81049318 296.57979154 219.8082748 293.18456254 219.80353928 289.78927135 C219.79114847 283.37206578 219.75838035 276.95513552 219.71814132 270.53805071 C219.67330154 263.22725833 219.65140603 255.91645222 219.63135958 248.60555637 C219.58964368 233.57785089 219.51936835 218.55040243 219.43006516 203.52289867 C220.48395432 203.54384594 221.53784348 203.56479321 222.62366867 203.58637524 C226.55777362 203.65912762 230.49181987 203.70482542 234.42640305 203.74262524 C236.12474717 203.76266088 237.82302301 203.78989752 239.52112961 203.82465649 C241.97141555 203.87353283 244.42078456 203.8959474 246.87147141 203.91352367 C247.62279846 203.93416882 248.37412552 203.95481396 249.14822006 203.97608471 C254.68479677 203.97840724 257.84334308 202.63531722 262.43006516 199.52289867 C265.39033004 196.40683037 266.67406703 192.78402874 266.93006516 188.52289867 C266.67654878 184.1624171 265.19826931 180.87881387 262.43006516 177.52289867 C255.91775896 172.25762984 249.91900649 172.37177552 241.91736984 172.36176586 C240.96549286 172.35680096 240.01361588 172.35183605 239.03289413 172.3467207 C235.8892354 172.33213677 232.74562714 172.32530313 229.60194016 172.31977367 C227.41104252 172.31401887 225.2201449 172.30826118 223.02924728 172.30250072 C218.4361256 172.29200129 213.84302137 172.28615178 209.24988937 172.2826643 C203.37788393 172.27718356 197.50611082 172.25315984 191.63417816 172.22469234 C187.10787416 172.20602511 182.58162565 172.20085817 178.05528641 172.19932842 C175.8912466 172.19631032 173.72720757 172.18831039 171.56320572 172.17514324 C168.52873928 172.15799837 165.49483444 172.15998373 162.46033859 172.16645336 C161.57482819 172.15723858 160.68931778 172.1480238 159.77697372 172.13852978 C152.70370133 172.18552883 145.2581158 172.91473093 140.43006516 178.58539867 Z " fill="#000000" transform="translate(116.5699348449707,-0.5228986740112305)"/>
</svg>
